<?xml version="1.0" encoding="utf-8"?>
<!-- Generator: Adobe Illustrator 19.0.0, SVG Export Plug-In . SVG Version: 6.00 Build 0)  -->
<svg version="1.1" id="Layer_1" xmlns="http://www.w3.org/2000/svg" xmlns:xlink="http://www.w3.org/1999/xlink" x="0px" y="0px"
	 width="1103px" height="775px" viewBox="254 33.9 1103 775" style="enable-background:new 254 33.9 1103 775;"
	 xml:space="preserve">
<style type="text/css">
	.st0{fill:none;stroke:#000000;stroke-miterlimit:10;}
	.st1{fill:#FFFFFF;}
	.st2{font-family:'ArialMT';}
	.st3{font-size:13px;}
	.st4{font-family:'Arial-BoldMT';}
	.st5{opacity:0.2;fill:#C0C0C0;enable-background:new    ;}
	.st6{fill:none;stroke:#000000;stroke-miterlimit:10;stroke-dasharray:3;}
</style>
<g>
	<g transform="translate(10,5) scale(1,1)">
		<path class="st0" d="M254,38.9h1083v755H254V38.9"/>
	</g>
	<g transform="translate(10,5) scale(1,1)">
		<path class="st1" d="M254,38.9v22h189.4l11-11v-11H254"/>
	</g>
	<g transform="translate(10,5) scale(1,1)">
		<path class="st0" d="M254,38.9v22h189.4l11-11v-11H254L254,38.9"/>
	</g>
	<g transform="translate(10,5) scale(1,1)">
		<g>
			<path class="st0" d="M254,33.9"/>
			<text transform="matrix(1 0 0 1 324.979 56.39)" class="st2 st3">SOE_startLiveSlam</text>
		</g>
	</g>
	<g transform="translate(10,5) scale(1,1)">
		<g>
			<path d="M254,33.9"/>
			<text transform="matrix(1 0 0 1 259 56.39)" class="st4 st3">interaction</text>
		</g>
	</g>
	<g transform="translate(10,5) scale(1,1)">
		<rect x="621" y="80.9" class="st5" width="72" height="39"/>
	</g>
	<g transform="translate(10,5) scale(1,1)">
		<rect x="614" y="73.9" class="st1" width="72" height="39"/>
	</g>
	<g transform="translate(10,5) scale(1,1)">
		<path class="st0" d="M614,73.9h72v39h-72V73.9z"/>
	</g>
	<g transform="translate(10,5) scale(1,1)">
		<g>
			<path class="st0" d="M254,33.9"/>
			<text transform="matrix(1 0 0 1 635.9114 93.39)" class="st4 st3">main</text>
		</g>
	</g>
	<g transform="translate(10,5) scale(1,1)">
		<path class="st6" d="M651.5,113.9v198"/>
	</g>
	<g transform="translate(10,5) scale(1,1)">
		<rect x="781" y="80.9" class="st5" width="147" height="39"/>
	</g>
	<g transform="translate(10,5) scale(1,1)">
		<rect x="774" y="73.9" class="st1" width="147" height="39"/>
	</g>
	<g transform="translate(10,5) scale(1,1)">
		<path class="st0" d="M774,73.9h147v39H774V73.9z"/>
	</g>
	<g transform="translate(10,5) scale(1,1)">
		<g>
			<path class="st0" d="M254,33.9"/>
			<text transform="matrix(1 0 0 1 788.2446 93.39)" class="st4 st3">gn_: SlamGmapping</text>
		</g>
	</g>
	<g transform="translate(10,5) scale(1,1)">
		<path class="st6" d="M848.5,113.9v574"/>
	</g>
	<g transform="translate(10,5) scale(1,1)">
		<path class="st0" d="M651,187.9h190"/>
	</g>
	<g transform="translate(10,5) scale(1,1)">
		<path d="M830.8,192.1l10.2-4.2l-10.2-4.2"/>
	</g>
	<g transform="translate(10,5) scale(1,1)">
		<path class="st0" d="M830.8,192.1l10.2-4.2l-10.2-4.2V192.1"/>
	</g>
	<g transform="translate(10,5) scale(1,1)">
		<g>
			<path class="st0" d="M254,33.9"/>
			<text transform="matrix(1 0 0 1 693.2637 184.39)" class="st2 st3">1 : startLiveSlam()</text>
		</g>
	</g>
	<g transform="translate(10,5) scale(1,1)">
		<rect x="841" y="187.9" class="st1" width="13" height="104"/>
	</g>
	<g transform="translate(10,5) scale(1,1)">
		<path class="st0" d="M841,187.9h13v104h-13V187.9z"/>
	</g>
	<g transform="translate(10,5) scale(1,1)">
		<path class="st6" d="M841,281.9H651"/>
	</g>
	<g transform="translate(10,5) scale(1,1)">
		<path class="st0" d="M661.2,277.7l-10.2,4.2l10.2,4.2"/>
	</g>
	<g transform="translate(10,5) scale(1,1)">
		<g>
			<path class="st0" d="M254,33.9"/>
			<text transform="matrix(1 0 0 1 736.115 298.39)" class="st2 st3">2 :</text>
		</g>
	</g>
	<g transform="translate(10,5) scale(1,1)">
		<path class="st0" d="M848,449.9h30v20h-24"/>
	</g>
	<g transform="translate(10,5) scale(1,1)">
		<path d="M864.2,465.7l-10.2,4.2l10.2,4.2"/>
	</g>
	<g transform="translate(10,5) scale(1,1)">
		<path class="st0" d="M864.2,465.7l-10.2,4.2l10.2,4.2V465.7"/>
	</g>
	<g transform="translate(10,5) scale(1,1)">
		<g>
			<path class="st0" d="M254,33.9"/>
			<text transform="matrix(1 0 0 1 772.696 465.39)" class="st2 st3">4 : initMapper(scan: const LaserScan&amp;)</text>
		</g>
	</g>
	<g transform="translate(10,5) scale(1,1)">
		<rect x="841" y="469.9" class="st1" width="13" height="76"/>
	</g>
	<g transform="translate(10,5) scale(1,1)">
		<path class="st0" d="M841,469.9h13v76h-13V469.9z"/>
	</g>
</g>
</svg>
