<?xml version="1.0" encoding="utf-8"?>
<!-- Generator: Adobe Illustrator 19.0.0, SVG Export Plug-In . SVG Version: 6.00 Build 0)  -->
<svg version="1.1" id="Layer_1" xmlns="http://www.w3.org/2000/svg" xmlns:xlink="http://www.w3.org/1999/xlink" x="0px" y="0px"
	 width="652px" height="1060px" viewBox="28 -110.1 652 1060" style="enable-background:new 28 -110.1 652 1060;"
	 xml:space="preserve">
<style type="text/css">
	.st0{opacity:0.2;fill:#C0C0C0;enable-background:new    ;}
	.st1{fill:#FFFFFF;}
	.st2{fill:none;stroke:#000000;stroke-miterlimit:10;}
	.st3{font-family:'Arial-BoldMT';}
	.st4{font-size:13px;}
	.st5{fill:none;stroke:#000000;stroke-miterlimit:10;stroke-dasharray:3;}
	.st6{font-family:'ArialMT';}
</style>
<g>
	<g transform="translate(-154,-117) scale(1,1)">
		<rect x="199" y="23.9" class="st0" width="252.8" height="15"/>
	</g>
	<g transform="translate(-154,-117) scale(1,1)">
		<rect x="199" y="37.9" class="st0" width="632" height="1026"/>
	</g>
	<g transform="translate(-154,-117) scale(1,1)">
		<rect x="192" y="31.9" class="st1" width="632" height="1025"/>
	</g>
	<g transform="translate(-154,-117) scale(1,1)">
		<path class="st2" d="M192,31.9h632v1025H192V31.9z"/>
	</g>
	<g transform="translate(-154,-117) scale(1,1)">
		<rect x="192" y="16.9" class="st1" width="252.8" height="15"/>
	</g>
	<g transform="translate(-154,-117) scale(1,1)">
		<path class="st2" d="M192,16.9h252.8v15H192V16.9z"/>
	</g>
	<g transform="translate(-154,-117) scale(1,1)">
		<rect x="192" y="30.9" class="st1" width="632" height="1026"/>
	</g>
	<g transform="translate(-154,-117) scale(1,1)">
		<path class="st2" d="M192,30.9h632v1026H192V30.9z"/>
	</g>
	<g transform="translate(-154,-117) scale(1,1)">
		<path class="st2" d="M436.8,19.9v4"/>
	</g>
	<g transform="translate(-154,-117) scale(1,1)">
		<path class="st2" d="M433.8,27.9v-4h6"/>
	</g>
	<g transform="translate(-154,-117) scale(1,1)">
		<path class="st2" d="M439.8,27.9v-4h-6"/>
	</g>
	<text transform="matrix(1 0 0 1 339.9146 -65.61)" class="st3 st4">ROS</text>
	<g transform="translate(-154,-117) scale(1,1)">
		<rect x="382" y="63.9" class="st0" width="74" height="15"/>
	</g>
	<g transform="translate(-154,-117) scale(1,1)">
		<rect x="382" y="77.9" class="st0" width="185" height="314"/>
	</g>
	<g transform="translate(-154,-117) scale(1,1)">
		<rect x="375" y="71.9" class="st1" width="185" height="313"/>
	</g>
	<g transform="translate(-154,-117) scale(1,1)">
		<path class="st2" d="M375,71.9h185v313H375V71.9z"/>
	</g>
	<g transform="translate(-154,-117) scale(1,1)">
		<rect x="375" y="56.9" class="st1" width="74" height="15"/>
	</g>
	<g transform="translate(-154,-117) scale(1,1)">
		<path class="st2" d="M375,56.9h74v15h-74V56.9z"/>
	</g>
	<g transform="translate(-154,-117) scale(1,1)">
		<rect x="375" y="70.9" class="st1" width="185" height="314"/>
	</g>
	<g transform="translate(-154,-117) scale(1,1)">
		<path class="st2" d="M375,70.9h185v314H375V70.9z"/>
	</g>
	<text transform="matrix(1 0 0 1 309.8882 -25.61)" class="st3 st4">tf</text>
	<g transform="translate(-154,-117) scale(1,1)">
		<rect x="222" y="63.9" class="st0" width="60.8" height="15"/>
	</g>
	<g transform="translate(-154,-117) scale(1,1)">
		<rect x="222" y="77.9" class="st0" width="152" height="338"/>
	</g>
	<g transform="translate(-154,-117) scale(1,1)">
		<rect x="215" y="71.9" class="st1" width="152" height="337"/>
	</g>
	<g transform="translate(-154,-117) scale(1,1)">
		<path class="st2" d="M215,71.9h152v337H215V71.9z"/>
	</g>
	<g transform="translate(-154,-117) scale(1,1)">
		<rect x="215" y="56.9" class="st1" width="60.8" height="15"/>
	</g>
	<g transform="translate(-154,-117) scale(1,1)">
		<path class="st2" d="M215,56.9h60.8v15H215V56.9z"/>
	</g>
	<g transform="translate(-154,-117) scale(1,1)">
		<rect x="215" y="70.9" class="st1" width="152" height="338"/>
	</g>
	<g transform="translate(-154,-117) scale(1,1)">
		<path class="st2" d="M215,70.9h152v338H215V70.9z"/>
	</g>
	<g transform="translate(-154,-117) scale(1,1)">
		<g>
			<text transform="matrix(1 0 0 1 281.9705 91.39)" class="st3 st4">ros</text>
		</g>
	</g>
	<g transform="translate(-154,-117) scale(1,1)">
		<rect x="251" y="119.9" class="st0" width="84" height="24"/>
	</g>
	<g transform="translate(-154,-117) scale(1,1)">
		<rect x="244" y="112.9" class="st1" width="84" height="24"/>
	</g>
	<g transform="translate(-154,-117) scale(1,1)">
		<path class="st2" d="M244,112.9h84v24h-84V112.9z"/>
	</g>
	<text transform="matrix(1 0 0 1 107.4314 15.39)" class="st3 st4">Duration</text>
	<g transform="translate(-154,-117) scale(1,1)">
		<rect x="251" y="179.9" class="st0" width="84" height="24"/>
	</g>
	<g transform="translate(-154,-117) scale(1,1)">
		<rect x="244" y="172.9" class="st1" width="84" height="24"/>
	</g>
	<g transform="translate(-154,-117) scale(1,1)">
		<path class="st2" d="M244,172.9h84v24h-84V172.9z"/>
	</g>
	<text transform="matrix(1 0 0 1 117.7971 75.39)" class="st3 st4">Time</text>
	<g transform="translate(-154,-117) scale(1,1)">
		<rect x="251" y="299.9" class="st0" width="84.8" height="24"/>
	</g>
	<g transform="translate(-154,-117) scale(1,1)">
		<rect x="244" y="292.9" class="st1" width="84.8" height="24"/>
	</g>
	<g transform="translate(-154,-117) scale(1,1)">
		<path class="st2" d="M244,292.9h84.8v24H244V292.9z"/>
	</g>
	<text transform="matrix(1 0 0 1 96.2837 195.39)" class="st3 st4">NodeHandle</text>
	<g transform="translate(-154,-117) scale(1,1)">
		<rect x="401" y="127.9" class="st0" width="147" height="24"/>
	</g>
	<g transform="translate(-154,-117) scale(1,1)">
		<rect x="394" y="120.9" class="st1" width="147" height="24"/>
	</g>
	<g transform="translate(-154,-117) scale(1,1)">
		<path class="st2" d="M394,120.9h147v24H394V120.9z"/>
	</g>
	<text transform="matrix(1 0 0 1 261.0017 23.39)" class="st3 st4">TransformListener</text>
	<g transform="translate(-154,-117) scale(1,1)">
		<rect x="251" y="359.9" class="st0" width="84" height="24"/>
	</g>
	<g transform="translate(-154,-117) scale(1,1)">
		<rect x="244" y="352.9" class="st1" width="84" height="24"/>
	</g>
	<g transform="translate(-154,-117) scale(1,1)">
		<path class="st2" d="M244,352.9h84v24h-84V352.9z"/>
	</g>
	<text transform="matrix(1 0 0 1 104.9019 255.39)" class="st3 st4">Publisher</text>
	<g transform="translate(-154,-117) scale(1,1)">
		<rect x="401" y="184.9" class="st0" width="137" height="24"/>
	</g>
	<g transform="translate(-154,-117) scale(1,1)">
		<rect x="527.2" y="166.9" class="st0" width="19.8" height="22"/>
	</g>
	<g transform="translate(-154,-117) scale(1,1)">
		<rect x="394" y="177.9" class="st1" width="137" height="24"/>
	</g>
	<g transform="translate(-154,-117) scale(1,1)">
		<path class="st2" d="M394,177.9h137v24H394V177.9z"/>
	</g>
	<text transform="matrix(1 0 0 1 267.6814 80.39)" class="st3 st4">MessageFilter</text>
	<g transform="translate(-154,-117) scale(1,1)">
		<rect x="520.2" y="159.9" class="st1" width="19.8" height="22"/>
	</g>
	<g transform="translate(-154,-117) scale(1,1)">
		<path class="st5" d="M520.2,159.9H540v22h-19.8V159.9z"/>
	</g>
	<text transform="matrix(1 0 0 1 371.1709 60.39)" class="st6 st4">M</text>
	<g transform="translate(-154,-117) scale(1,1)">
		<rect x="247" y="471.9" class="st0" width="224" height="15"/>
	</g>
	<g transform="translate(-154,-117) scale(1,1)">
		<rect x="247" y="485.9" class="st0" width="560" height="562"/>
	</g>
	<g transform="translate(-154,-117) scale(1,1)">
		<rect x="240" y="479.9" class="st1" width="560" height="561"/>
	</g>
	<g transform="translate(-154,-117) scale(1,1)">
		<path class="st2" d="M240,479.9h560v561H240V479.9z"/>
	</g>
	<g transform="translate(-154,-117) scale(1,1)">
		<rect x="240" y="464.9" class="st1" width="224" height="15"/>
	</g>
	<g transform="translate(-154,-117) scale(1,1)">
		<path class="st2" d="M240,464.9h224v15H240V464.9z"/>
	</g>
	<g transform="translate(-154,-117) scale(1,1)">
		<rect x="240" y="478.9" class="st1" width="560" height="562"/>
	</g>
	<g transform="translate(-154,-117) scale(1,1)">
		<path class="st2" d="M240,478.9h560v562H240V478.9z"/>
	</g>
	<text transform="matrix(1 0 0 1 336.3755 382.39)" class="st3 st4">messages</text>
	<g transform="translate(-154,-117) scale(1,1)">
		<rect x="551" y="575.9" class="st0" width="105.1" height="167"/>
	</g>
	<g transform="translate(-154,-117) scale(1,1)">
		<rect x="544" y="568.9" class="st1" width="105.1" height="167"/>
	</g>
	<g transform="translate(-154,-117) scale(1,1)">
		<path class="st2" d="M544,568.9h105.1v167H544V568.9z"/>
	</g>
	<g transform="translate(-154,-117) scale(1,1)">
		<path class="st2" d="M544,593.9h105.1"/>
	</g>
	<text transform="matrix(1 0 0 1 411.4832 471.39)" class="st3 st4">LaserScan</text>
	<text transform="matrix(1 0 0 1 395 494.39)" class="st6 st4">angle_min</text>
	<text transform="matrix(1 0 0 1 395 509.39)" class="st6 st4">angle_max</text>
	<text transform="matrix(1 0 0 1 395 524.39)" class="st6 st4">angle_increment</text>
	<text transform="matrix(1 0 0 1 395 539.39)" class="st6 st4">time_increment</text>
	<text transform="matrix(1 0 0 1 395 554.39)" class="st6 st4">scan_time</text>
	<text transform="matrix(1 0 0 1 395 569.39)" class="st6 st4">range_min</text>
	<text transform="matrix(1 0 0 1 395 584.39)" class="st6 st4">range_max</text>
	<text transform="matrix(1 0 0 1 395 599.39)" class="st6 st4">ranges</text>
	<text transform="matrix(1 0 0 1 395 614.39)" class="st6 st4">intensities</text>
	<g transform="translate(-154,-117) scale(1,1)">
		<rect x="287" y="519.9" class="st0" width="76.8" height="15"/>
	</g>
	<g transform="translate(-154,-117) scale(1,1)">
		<rect x="287" y="533.9" class="st0" width="192" height="146"/>
	</g>
	<g transform="translate(-154,-117) scale(1,1)">
		<rect x="280" y="527.9" class="st1" width="192" height="145"/>
	</g>
	<g transform="translate(-154,-117) scale(1,1)">
		<path class="st2" d="M280,527.9h192v145H280V527.9z"/>
	</g>
	<g transform="translate(-154,-117) scale(1,1)">
		<rect x="280" y="512.9" class="st1" width="76.8" height="15"/>
	</g>
	<g transform="translate(-154,-117) scale(1,1)">
		<path class="st2" d="M280,512.9h76.8v15H280V512.9z"/>
	</g>
	<g transform="translate(-154,-117) scale(1,1)">
		<rect x="280" y="526.9" class="st1" width="192" height="146"/>
	</g>
	<g transform="translate(-154,-117) scale(1,1)">
		<path class="st2" d="M280,526.9h192v146H280V526.9z"/>
	</g>
	<text transform="matrix(1 0 0 1 194.1846 430.39)" class="st3 st4">std_msgs</text>
	<g transform="translate(-154,-117) scale(1,1)">
		<rect x="303" y="567.9" class="st0" width="107" height="77"/>
	</g>
	<g transform="translate(-154,-117) scale(1,1)">
		<rect x="296" y="560.9" class="st1" width="107" height="77"/>
	</g>
	<g transform="translate(-154,-117) scale(1,1)">
		<path class="st2" d="M296,560.9h107v77H296V560.9z"/>
	</g>
	<g transform="translate(-154,-117) scale(1,1)">
		<path class="st2" d="M296,585.9h107"/>
	</g>
	<text transform="matrix(1 0 0 1 174.1814 463.39)" class="st3 st4">Header</text>
	<text transform="matrix(1 0 0 1 147 486.39)" class="st6 st4">+seq: uint32</text>
	<text transform="matrix(1 0 0 1 147 501.39)" class="st6 st4">+stamp: time</text>
	<text transform="matrix(1 0 0 1 147 516.39)" class="st6 st4">+frame_id: string</text>
	<g transform="translate(-154,-117) scale(1,1)">
		<rect x="503" y="527.9" class="st0" width="102.4" height="15"/>
	</g>
	<g transform="translate(-154,-117) scale(1,1)">
		<rect x="503" y="541.9" class="st0" width="256" height="250"/>
	</g>
	<g transform="translate(-154,-117) scale(1,1)">
		<rect x="496" y="535.9" class="st1" width="256" height="249"/>
	</g>
	<g transform="translate(-154,-117) scale(1,1)">
		<path class="st2" d="M496,535.9h256v249H496V535.9z"/>
	</g>
	<g transform="translate(-154,-117) scale(1,1)">
		<rect x="496" y="520.9" class="st1" width="102.4" height="15"/>
	</g>
	<g transform="translate(-154,-117) scale(1,1)">
		<path class="st2" d="M496,520.9h102.4v15H496V520.9z"/>
	</g>
	<g transform="translate(-154,-117) scale(1,1)">
		<rect x="496" y="534.9" class="st1" width="256" height="250"/>
	</g>
	<g transform="translate(-154,-117) scale(1,1)">
		<path class="st2" d="M496,534.9h256v250H496V534.9z"/>
	</g>
	<text transform="matrix(1 0 0 1 431.3459 438.39)" class="st3 st4">sensor_msgs</text>
	<g transform="translate(-154,-117) scale(1,1)">
		<rect x="575" y="583.9" class="st0" width="159" height="167"/>
	</g>
	<g transform="translate(-154,-117) scale(1,1)">
		<rect x="568" y="576.9" class="st1" width="159" height="167"/>
	</g>
	<g transform="translate(-154,-117) scale(1,1)">
		<path class="st2" d="M568,576.9h159v167H568V576.9z"/>
	</g>
	<g transform="translate(-154,-117) scale(1,1)">
		<path class="st2" d="M568,601.9h159"/>
	</g>
	<text transform="matrix(1 0 0 1 462.425 479.39)" class="st3 st4">LaserScan</text>
	<text transform="matrix(1 0 0 1 419 502.39)" class="st6 st4">+angle_min: float32</text>
	<text transform="matrix(1 0 0 1 419 517.39)" class="st6 st4">+angle_max: float32</text>
	<text transform="matrix(1 0 0 1 419 532.39)" class="st6 st4">+angle_increment: float32</text>
	<text transform="matrix(1 0 0 1 419 547.39)" class="st6 st4">+time_increment: float32</text>
	<text transform="matrix(1 0 0 1 419 562.39)" class="st6 st4">+scan_time: float32</text>
	<text transform="matrix(1 0 0 1 419 577.39)" class="st6 st4">+range_min: float32</text>
	<text transform="matrix(1 0 0 1 419 592.39)" class="st6 st4">+range_max: float32</text>
	<text transform="matrix(1 0 0 1 419 607.39)" class="st6 st4">+ranges: float32[]</text>
	<text transform="matrix(1 0 0 1 419 622.39)" class="st6 st4">+intensities: float32[]</text>
	<g transform="translate(-154,-117) scale(1,1)">
		<path class="st2" d="M568,603.9H403"/>
	</g>
	<g transform="translate(-154,-117) scale(1,1)">
		<path d="M413.2,599.7l-10.2,4.2l10.2,4.2l11.8-4.2"/>
	</g>
	<g transform="translate(-154,-117) scale(1,1)">
		<path class="st2" d="M413.2,599.7l-10.2,4.2l10.2,4.2l11.8-4.2L413.2,599.7"/>
	</g>
	<text transform="matrix(1 0 0 1 252.5 507.39)" class="st6 st4">+header</text>
	<g transform="translate(-154,-117) scale(1,1)">
		<rect x="591" y="63.9" class="st0" width="73.6" height="15"/>
	</g>
	<g transform="translate(-154,-117) scale(1,1)">
		<rect x="591" y="77.9" class="st0" width="184" height="170"/>
	</g>
	<g transform="translate(-154,-117) scale(1,1)">
		<rect x="584" y="71.9" class="st1" width="184" height="169"/>
	</g>
	<g transform="translate(-154,-117) scale(1,1)">
		<path class="st2" d="M584,71.9h184v169H584V71.9z"/>
	</g>
	<g transform="translate(-154,-117) scale(1,1)">
		<rect x="584" y="56.9" class="st1" width="73.6" height="15"/>
	</g>
	<g transform="translate(-154,-117) scale(1,1)">
		<path class="st2" d="M584,56.9h73.6v15H584V56.9z"/>
	</g>
	<g transform="translate(-154,-117) scale(1,1)">
		<rect x="584" y="70.9" class="st1" width="184" height="170"/>
	</g>
	<g transform="translate(-154,-117) scale(1,1)">
		<path class="st2" d="M584,70.9h184v170H584V70.9z"/>
	</g>
	<text transform="matrix(1 0 0 1 476.481 -25.61)" class="st3 st4">message_filters</text>
	<g transform="translate(-154,-117) scale(1,1)">
		<rect x="631" y="137.9" class="st0" width="96.9" height="24"/>
	</g>
	<g transform="translate(-154,-117) scale(1,1)">
		<rect x="717.1" y="119.9" class="st0" width="19.8" height="22"/>
	</g>
	<g transform="translate(-154,-117) scale(1,1)">
		<rect x="624" y="130.9" class="st1" width="96.9" height="24"/>
	</g>
	<g transform="translate(-154,-117) scale(1,1)">
		<path class="st2" d="M624,130.9h96.9v24H624V130.9z"/>
	</g>
	<text transform="matrix(1 0 0 1 487.3882 33.39)" class="st3 st4">Subscriber</text>
	<g transform="translate(-154,-117) scale(1,1)">
		<rect x="710.1" y="112.9" class="st1" width="19.8" height="22"/>
	</g>
	<g transform="translate(-154,-117) scale(1,1)">
		<path class="st5" d="M710.1,112.9h19.8v22h-19.8V112.9z"/>
	</g>
	<text transform="matrix(1 0 0 1 561.0845 13.39)" class="st6 st4">M</text>
	<g transform="translate(-154,-117) scale(1,1)">
		<rect x="401" y="223.9" class="st0" width="148.4" height="24"/>
	</g>
	<g transform="translate(-154,-117) scale(1,1)">
		<rect x="394" y="216.9" class="st1" width="148.4" height="24"/>
	</g>
	<g transform="translate(-154,-117) scale(1,1)">
		<path class="st2" d="M394,216.9h148.4v24H394V216.9z"/>
	</g>
	<text transform="matrix(1 0 0 1 249.8003 119.39)" class="st3 st4">TransformBroadcaster</text>
	<g transform="translate(-154,-117) scale(1,1)">
		<rect x="401" y="280.9" class="st0" width="137" height="24"/>
	</g>
	<g transform="translate(-154,-117) scale(1,1)">
		<rect x="530.1" y="262.9" class="st0" width="16.9" height="22"/>
	</g>
	<g transform="translate(-154,-117) scale(1,1)">
		<rect x="394" y="273.9" class="st1" width="137" height="24"/>
	</g>
	<g transform="translate(-154,-117) scale(1,1)">
		<path class="st2" d="M394,273.9h137v24H394V273.9z"/>
	</g>
	<text transform="matrix(1 0 0 1 282.4841 176.39)" class="st3 st4">Stamped</text>
	<g transform="translate(-154,-117) scale(1,1)">
		<rect x="523.1" y="255.9" class="st1" width="16.9" height="22"/>
	</g>
	<g transform="translate(-154,-117) scale(1,1)">
		<path class="st5" d="M523.1,255.9H540v22h-16.9V255.9z"/>
	</g>
	<text transform="matrix(1 0 0 1 374.0591 156.39)" class="st6 st4">T</text>
	<g transform="translate(-154,-117) scale(1,1)">
		<rect x="401" y="332.9" class="st0" width="147" height="24"/>
	</g>
	<g transform="translate(-154,-117) scale(1,1)">
		<rect x="394" y="325.9" class="st1" width="147" height="24"/>
	</g>
	<g transform="translate(-154,-117) scale(1,1)">
		<path class="st2" d="M394,325.9h147v24H394V325.9z"/>
	</g>
	<text transform="matrix(1 0 0 1 298.6846 228.39)" class="st3 st4">Pose</text>
	<g transform="translate(-154,-117) scale(1,1)">
		<rect x="263" y="791.9" class="st0" width="144" height="15"/>
	</g>
	<g transform="translate(-154,-117) scale(1,1)">
		<rect x="263" y="805.9" class="st0" width="360" height="218"/>
	</g>
	<g transform="translate(-154,-117) scale(1,1)">
		<rect x="256" y="799.9" class="st1" width="360" height="217"/>
	</g>
	<g transform="translate(-154,-117) scale(1,1)">
		<path class="st2" d="M256,799.9h360v217H256V799.9z"/>
	</g>
	<g transform="translate(-154,-117) scale(1,1)">
		<rect x="256" y="784.9" class="st1" width="144" height="15"/>
	</g>
	<g transform="translate(-154,-117) scale(1,1)">
		<path class="st2" d="M256,784.9h144v15H256V784.9z"/>
	</g>
	<g transform="translate(-154,-117) scale(1,1)">
		<rect x="256" y="798.9" class="st1" width="360" height="218"/>
	</g>
	<g transform="translate(-154,-117) scale(1,1)">
		<path class="st2" d="M256,798.9h360v218H256V798.9z"/>
	</g>
	<text transform="matrix(1 0 0 1 252.3755 702.39)" class="st3 st4">nav_msgs</text>
	<g transform="translate(-154,-117) scale(1,1)">
		<rect x="279" y="863.9" class="st0" width="136" height="75"/>
	</g>
	<g transform="translate(-154,-117) scale(1,1)">
		<rect x="272" y="856.9" class="st1" width="136" height="75"/>
	</g>
	<g transform="translate(-154,-117) scale(1,1)">
		<path class="st2" d="M272,856.9h136v75H272V856.9z"/>
	</g>
	<g transform="translate(-154,-117) scale(1,1)">
		<path class="st2" d="M272,894.9h136"/>
	</g>
	<text transform="matrix(1 0 0 1 162.8787 757.39)" class="st6 st4">«struct»</text>
	<text transform="matrix(1 0 0 1 162.8787 772.39)" class="st3 st4">GetMap</text>
	<text transform="matrix(1 0 0 1 123 795.39)" class="st6 st4">+request: Request</text>
	<text transform="matrix(1 0 0 1 123 810.39)" class="st6 st4">+response: Response</text>
	<g transform="translate(-154,-117) scale(1,1)">
		<rect x="487" y="855.9" class="st0" width="107" height="52"/>
	</g>
	<g transform="translate(-154,-117) scale(1,1)">
		<rect x="480" y="848.9" class="st1" width="107" height="52"/>
	</g>
	<g transform="translate(-154,-117) scale(1,1)">
		<path class="st2" d="M480,848.9h107v52H480V848.9z"/>
	</g>
	<text transform="matrix(1 0 0 1 345.5273 749.39)" class="st6 st4">«dataType»</text>
	<text transform="matrix(1 0 0 1 355.29 764.39)" class="st3 st4">Request</text>
	<g transform="translate(-154,-117) scale(1,1)">
		<rect x="487" y="919.9" class="st0" width="107" height="52"/>
	</g>
	<g transform="translate(-154,-117) scale(1,1)">
		<rect x="480" y="912.9" class="st1" width="107" height="52"/>
	</g>
	<g transform="translate(-154,-117) scale(1,1)">
		<path class="st2" d="M480,912.9h107v52H480V912.9z"/>
	</g>
	<text transform="matrix(1 0 0 1 345.5273 813.39)" class="st6 st4">«dataType»</text>
	<text transform="matrix(1 0 0 1 350.231 828.39)" class="st3 st4">Response</text>
	<g transform="translate(-154,-117) scale(1,1)">
		<path class="st2" d="M480,876.9h-72"/>
	</g>
	<g transform="translate(-154,-117) scale(1,1)">
		<path class="st1" d="M408,876.9c0-3.9,3.1-7,7-7s7,3.1,7,7s-3.1,7-7,7S408,880.8,408,876.9z"/>
	</g>
	<g transform="translate(-154,-117) scale(1,1)">
		<path class="st2" d="M408,876.9c0-3.9,3.1-7,7-7s7,3.1,7,7s-3.1,7-7,7S408,880.8,408,876.9z"/>
	</g>
	<g transform="translate(-154,-117) scale(1,1)">
		<path class="st2" d="M422,876.9h-14"/>
	</g>
	<g transform="translate(-154,-117) scale(1,1)">
		<path class="st2" d="M415,869.9v14"/>
	</g>
	<g transform="translate(-154,-117) scale(1,1)">
		<path class="st2" d="M480,915.9h-72"/>
	</g>
	<g transform="translate(-154,-117) scale(1,1)">
		<path class="st1" d="M408,915.9c0-3.9,3.1-7,7-7s7,3.1,7,7s-3.1,7-7,7S408,919.8,408,915.9z"/>
	</g>
	<g transform="translate(-154,-117) scale(1,1)">
		<path class="st2" d="M408,915.9c0-3.9,3.1-7,7-7s7,3.1,7,7s-3.1,7-7,7S408,919.8,408,915.9z"/>
	</g>
	<g transform="translate(-154,-117) scale(1,1)">
		<path class="st2" d="M422,915.9h-14"/>
	</g>
	<g transform="translate(-154,-117) scale(1,1)">
		<path class="st2" d="M415,908.9v14"/>
	</g>
</g>
</svg>
